<?xml version="1.0" standalone="no"?>
<!DOCTYPE svg PUBLIC "-//W3C//DTD SVG 20010904//EN"
 "http://www.w3.org/TR/2001/REC-SVG-20010904/DTD/svg10.dtd">
<svg version="1.0" xmlns="http://www.w3.org/2000/svg"
 width="500.000000pt" height="500.000000pt" viewBox="0 0 500.000000 500.000000"
 preserveAspectRatio="xMidYMid meet">

<g transform="translate(0.000000,500.000000) scale(0.100000,-0.100000)"
fill="#000000" stroke="none">
<path d="M3780 4309 c-46 -29 -77 -65 -96 -116 l-16 -41 -97 -6 c-53 -4 -114
-8 -136 -10 -39 -3 -41 -2 -62 45 -29 66 -81 93 -170 87 -57 -4 -67 -8 -101
-41 -21 -20 -42 -37 -46 -37 -5 0 -24 -11 -42 -25 -18 -14 -36 -25 -41 -25
-18 0 -43 -60 -67 -161 -24 -97 -25 -113 -16 -214 6 -69 6 -113 0 -119 -16
-16 -33 44 -35 119 -1 56 -11 95 -48 195 -36 96 -47 140 -47 183 0 55 -2 60
-44 102 -55 54 -111 73 -171 55 -102 -30 -274 -95 -322 -122 -55 -31 -137
-114 -156 -158 -6 -14 -20 -52 -31 -85 -15 -43 -30 -66 -52 -80 -17 -11 -29
-25 -27 -31 10 -29 -45 -53 -565 -250 -148 -56 -172 -62 -172 -43 0 6 -8 1
-18 -11 -10 -13 -27 -24 -38 -25 -10 0 -30 -8 -44 -18 -14 -9 -77 -34 -140
-57 -251 -89 -235 -82 -217 -95 10 -7 17 -22 17 -34 0 -21 -32 -61 -50 -61 -5
0 2 -11 15 -25 22 -21 24 -27 13 -50 -6 -14 -15 -25 -20 -25 -4 0 -8 -4 -8
-10 0 -5 7 -10 15 -10 28 0 40 -42 39 -150 -1 -98 -3 -109 -32 -165 -38 -72
-39 -94 -8 -161 21 -46 22 -53 9 -66 -19 -20 -28 -275 -11 -316 7 -15 12 -49
12 -77 l1 -50 60 0 c33 0 79 4 103 9 50 9 47 12 175 -160 104 -142 228 -297
281 -352 l41 -43 5 -199 c4 -144 9 -203 18 -212 9 -9 46 -13 120 -13 96 0 113
3 166 28 32 15 81 43 109 63 51 37 123 68 137 59 14 -8 243 55 270 74 16 11
32 40 46 82 20 62 22 64 70 81 27 9 61 17 77 17 24 1 27 -3 27 -31 0 -18 3
-50 6 -70 6 -32 11 -38 30 -38 17 0 24 -6 24 -19 0 -13 9 -21 30 -26 20 -4 36
-18 48 -38 l17 -32 3 67 c4 93 21 97 90 22 l52 -57 0 71 c0 64 2 72 19 72 17
0 20 -10 26 -75 4 -41 5 -81 1 -90 -12 -32 4 -13 19 21 15 37 27 40 77 19 16
-6 17 0 11 72 l-6 79 66 13 c48 9 72 20 92 41 25 26 102 60 165 74 l25 5 -3
136 c-2 75 -1 143 2 152 5 12 17 6 55 -30 64 -60 101 -78 143 -70 57 11 96 32
139 74 22 22 43 38 45 36 3 -3 7 -44 10 -93 3 -49 7 -109 10 -133 l6 -43 49 6
c79 11 240 55 279 77 20 12 49 39 63 62 l27 41 0 578 c0 516 -2 578 -16 578
-8 0 -47 -7 -85 -16 -39 -9 -72 -14 -75 -12 -2 3 5 26 17 52 42 96 34 208 -30
400 l-28 86 26 6 c54 12 79 26 124 72 45 46 99 142 113 199 4 15 16 43 27 62
34 57 30 147 -12 251 -40 98 -70 135 -120 151 -20 6 -45 19 -56 29 -53 46
-127 54 -185 19z m108 -58 c11 -7 13 -61 10 -280 -3 -256 -4 -273 -22 -287
-26 -19 -42 -18 -65 5 -17 17 -19 38 -19 271 l-1 252 24 24 c25 25 50 30 73
15z m-1234 -46 c43 -39 28 -77 -36 -90 -55 -11 -160 -46 -228 -77 -38 -18 -66
-26 -68 -19 -2 6 -10 7 -20 1 -28 -15 -130 -60 -136 -60 -19 0 0 44 34 83 39
44 98 77 245 139 33 14 71 30 85 36 45 19 95 14 124 -13z m622 -30 c12 -18 13
-66 10 -272 -2 -151 -8 -258 -15 -270 -19 -37 -79 -35 -89 3 -3 10 -6 57 -7
104 0 47 -3 162 -5 255 -2 94 0 176 4 183 21 35 78 33 102 -3z m754 -5 c20
-20 21 -29 15 -198 -8 -223 -8 -222 -45 -222 -23 0 -33 6 -39 23 -10 27 -7
388 3 405 11 18 44 14 66 -8z m-921 -79 c20 -13 11 -358 -9 -371 -9 -5 -20 -4
-29 3 -12 9 -13 9 -7 0 5 -9 2 -11 -8 -7 -17 6 -22 48 -31 226 -5 109 -4 119
15 138 21 21 46 25 69 11z m579 -44 c15 -12 16 -71 2 -98 -14 -25 -35 -24 -54
2 l-15 22 -7 -27 c-5 -20 -12 -26 -34 -26 -16 0 -31 4 -34 9 -3 4 -19 11 -35
14 -20 4 -31 13 -34 29 -3 18 -5 17 -6 -7 -1 -35 -17 -55 -43 -55 -22 0 -38
37 -38 90 0 49 13 57 104 59 38 0 71 3 74 5 7 8 106 -6 120 -17z m-982 -32 c9
-13 13 -28 10 -33 -3 -5 -31 -12 -62 -15 -65 -7 -72 -11 -54 -32 8 -10 30 -15
65 -15 50 0 54 -2 75 -37 20 -34 21 -44 14 -160 -4 -68 -10 -125 -13 -127 -8
-5 -82 11 -140 32 -55 18 -131 93 -131 128 0 34 -26 41 -53 16 -21 -20 -25
-20 -51 -7 -15 8 -33 12 -39 8 -5 -3 -7 -1 -4 4 4 6 0 16 -8 23 -21 17 -19 46
5 70 30 30 58 25 99 -20 20 -22 40 -37 44 -34 9 9 9 126 1 148 -3 9 -10 13
-15 10 -5 -3 -9 -3 -9 0 0 11 87 54 130 64 93 23 107 21 136 -23z m959 -195
c29 -11 43 -36 27 -52 -13 -13 -185 -20 -177 -7 4 5 1 9 -5 9 -6 0 -29 12 -51
27 -34 22 -42 24 -50 12 -7 -11 -9 -11 -9 4 0 15 12 17 119 17 66 0 131 -4
146 -10z m-1511 -99 c15 -16 26 -37 24 -47 -6 -33 -144 -98 -443 -208 -213
-79 -446 -166 -618 -232 -92 -35 -179 -64 -192 -64 -30 0 -65 33 -65 60 0 33
40 64 115 93 39 14 115 42 170 62 120 44 223 84 250 96 11 4 45 18 75 29 30
12 161 62 290 112 393 151 354 141 394 99z m1582 -85 c82 -202 129 -389 122
-487 -3 -39 -10 -75 -15 -80 -14 -14 -77 15 -111 53 -44 46 -91 161 -97 236
-4 43 -28 81 -40 62 -4 -6 -10 -8 -15 -5 -4 3 -11 -2 -14 -11 -5 -13 -9 -14
-21 -4 -12 10 -15 38 -15 131 0 66 3 118 8 118 19 -3 26 2 12 11 -25 15 47 40
108 37 l54 -2 24 -59z m-1196 -116 c22 -11 40 -26 40 -34 0 -33 -131 -256
-150 -256 -16 0 -31 40 -32 83 0 23 -4 60 -10 82 -5 22 -13 92 -16 156 l-7
117 67 -64 c38 -35 86 -73 108 -84z m-400 -5 c0 -15 -53 -86 -77 -102 -15 -11
-80 -45 -144 -76 -64 -31 -119 -63 -122 -71 -3 -8 -23 -20 -44 -26 -21 -7 -66
-26 -101 -41 -34 -16 -66 -29 -70 -29 -15 0 -148 -56 -174 -74 -26 -17 -112
-52 -253 -102 -51 -19 -82 -24 -116 -20 -38 4 -50 1 -65 -15 -22 -24 -29 -24
-54 1 -42 42 -11 83 95 123 105 40 363 142 420 166 28 11 91 34 140 51 118 41
245 91 325 128 142 66 240 101 240 87z m777 -1 c-3 -3 -12 -4 -19 -1 -8 3 -5
6 6 6 11 1 17 -2 13 -5z m118 -97 c49 -15 105 -45 105 -55 -1 -4 -16 -19 -35
-33 -18 -14 -63 -61 -100 -105 -134 -160 -158 -185 -213 -223 -31 -21 -100
-54 -152 -74 -52 -19 -158 -59 -235 -87 -294 -108 -328 -121 -422 -156 -145
-54 -359 -129 -523 -184 -80 -26 -203 -71 -275 -100 -71 -29 -152 -61 -180
-71 -27 -11 -61 -25 -75 -33 -63 -34 -180 -44 -180 -15 0 16 57 69 74 69 8 0
41 12 73 26 32 14 81 34 108 44 28 10 95 35 150 55 118 44 234 87 405 148 191
69 550 203 595 222 22 10 132 52 245 94 l205 76 3 38 c2 20 0 37 -5 37 -24 0
-152 -43 -253 -85 -63 -26 -155 -63 -205 -81 -49 -18 -139 -51 -200 -74 -60
-23 -180 -65 -265 -95 -85 -29 -193 -68 -240 -86 -47 -18 -98 -32 -113 -32
-17 0 -24 -3 -17 -7 9 -5 5 -10 -11 -15 -13 -4 -98 -34 -189 -67 -187 -69
-254 -88 -267 -79 -4 3 -14 18 -20 33 -21 47 -18 48 267 154 193 72 334 125
485 184 91 35 181 69 320 120 281 103 576 224 620 254 17 11 50 41 75 67 97
100 201 148 325 148 44 1 98 -5 120 -12z m336 -78 c47 -16 99 -57 99 -78 0
-26 -53 -102 -67 -97 -7 3 -12 0 -10 -6 1 -6 -4 -13 -12 -16 -8 -2 -11 0 -7 6
3 5 -29 -1 -72 -15 -62 -20 -91 -24 -150 -20 -94 5 -102 13 -71 74 62 122 185
187 290 152z m-1110 -90 c11 -11 19 -28 17 -37 -4 -23 -70 -57 -185 -97 -132
-45 -493 -175 -568 -204 -16 -6 -41 -16 -55 -21 -14 -5 -67 -25 -118 -45 -51
-19 -97 -33 -103 -30 -5 4 -9 2 -9 -4 0 -8 -37 -22 -85 -32 -5 -2 -16 -8 -23
-15 -7 -7 -32 -16 -57 -20 -25 -3 -45 -10 -45 -14 0 -11 -90 -41 -101 -34 -5
3 -9 1 -9 -4 0 -13 -117 -52 -135 -46 -18 7 -28 38 -20 63 8 26 39 45 136 81
46 17 119 45 162 61 128 48 227 85 322 118 50 18 135 50 190 71 55 21 154 58
220 81 115 39 271 100 345 133 50 22 96 20 121 -5z m1319 -159 c34 -34 45 -50
33 -50 -15 0 -15 -2 2 -14 28 -20 6 -42 -59 -61 -57 -16 -167 -25 -160 -13 3
4 0 8 -6 8 -7 0 -10 6 -7 14 3 7 -1 23 -9 35 -14 19 -13 20 3 14 10 -3 15 -2
11 2 -8 8 31 42 43 38 3 -1 23 25 45 58 33 52 39 57 46 40 4 -11 30 -43 58
-71z m-560 -59 c0 -30 -33 -161 -47 -187 -22 -43 -65 -67 -104 -59 -23 5 -29
11 -23 23 6 15 9 33 13 64 1 11 144 168 153 168 4 0 8 -4 8 -9z m970 -631 c0
-448 -2 -520 -15 -520 -8 0 -56 -14 -107 -30 -51 -16 -99 -30 -108 -30 -19 0
-19 3 -21 334 l-2 268 -28 -58 c-16 -33 -56 -117 -90 -189 -33 -71 -72 -154
-86 -184 -19 -40 -34 -57 -59 -67 -38 -16 -74 -5 -74 21 0 8 -6 14 -12 12 -7
-1 -12 4 -11 11 2 6 -1 12 -5 12 -5 0 -19 20 -31 44 -13 24 -36 57 -51 74 -15
17 -34 45 -41 61 -8 17 -17 31 -20 31 -3 0 -14 19 -24 43 -26 60 -36 71 -46
55 -5 -7 -9 -138 -9 -290 l0 -276 -62 -20 c-70 -23 -173 -52 -182 -52 -3 0 -6
227 -6 503 l0 504 88 26 c49 15 109 27 134 27 80 0 97 -18 262 -277 46 -73 49
-76 63 -58 8 11 55 101 104 200 108 216 136 248 250 284 40 13 97 31 124 41
28 10 53 18 58 19 4 0 7 -233 7 -519z m-1401 363 c7 -15 8 -41 2 -75 -2 -13
-55 -36 -70 -30 -8 3 -11 0 -7 -6 8 -14 -38 -27 -55 -16 -8 4 -9 3 -5 -4 4 -7
5 -12 2 -12 -2 0 -13 -3 -23 -6 -15 -5 -16 -4 -3 6 13 10 12 11 -3 6 -10 -3
-24 -6 -30 -6 -8 0 -7 -3 2 -9 9 -6 -4 -14 -45 -28 -173 -59 -253 -87 -292
-104 -23 -11 -51 -19 -62 -19 -11 0 -20 -4 -20 -9 0 -4 -21 -14 -47 -21 -27
-8 -75 -26 -109 -40 -71 -32 -117 -47 -94 -31 20 14 13 13 -35 -3 -22 -8 -38
-17 -35 -21 3 -4 -10 -13 -29 -21 -43 -18 -66 -18 -26 1 19 8 24 14 13 14 -27
1 -70 -21 -57 -30 15 -9 -88 -39 -136 -39 -20 0 -80 -9 -133 -19 -54 -11 -135
-22 -182 -26 -73 -5 -82 -4 -65 8 34 23 140 63 395 151 346 119 394 136 585
209 94 36 215 81 270 101 55 19 136 48 180 65 95 36 101 36 114 14z m937 -17
c6 -15 -36 -121 -68 -174 -20 -32 -21 -32 -40 -16 -29 27 -88 129 -88 152 0
16 9 24 38 31 90 23 151 26 158 7z m-859 -239 c47 -30 81 -71 112 -136 20 -43
21 -59 21 -397 l0 -353 -87 -26 c-49 -14 -97 -29 -108 -31 -11 -3 -28 -8 -37
-10 -16 -5 -18 3 -18 65 0 88 6 87 -180 25 l-137 -45 -26 -59 c-29 -67 -21
-63 -192 -113 -66 -19 -127 -38 -136 -42 -14 -5 -14 1 3 52 11 32 28 76 38 98
9 22 36 92 59 155 61 166 104 274 113 284 4 6 8 16 8 23 0 7 12 38 26 70 15
32 30 69 35 83 55 176 118 281 200 334 97 61 229 71 306 23z m-691 -471 l-196
-395 0 -151 c0 -146 -1 -151 -22 -160 -19 -8 -226 -60 -239 -60 -2 0 -4 48 -4
108 0 148 -8 262 -17 256 -4 -3 -8 1 -8 8 0 7 -20 35 -43 61 -24 26 -42 47
-40 47 7 0 -60 83 -84 105 -13 11 -23 24 -23 28 0 10 -90 131 -101 135 -5 2
-7 8 -4 12 3 5 -8 19 -25 32 -17 12 -36 34 -44 48 l-12 26 125 28 c191 44 173
49 264 -74 42 -58 90 -121 106 -140 l28 -35 65 135 c36 74 71 152 79 173 26
74 53 94 194 143 72 24 144 51 160 58 17 8 32 12 33 10 2 -1 -84 -180 -192
-398z"/>
<path d="M2470 2193 c-14 -9 -30 -24 -37 -33 -13 -17 -97 -230 -107 -271 l-6
-26 105 32 c58 17 107 33 109 36 2 2 7 66 11 142 l7 137 -29 0 c-16 0 -40 -8
-53 -17z"/>
<path d="M3353 1520 c6 -47 18 -60 60 -60 23 0 27 4 27 29 0 31 -22 61 -45 61
-7 0 -21 3 -31 7 -15 6 -16 1 -11 -37z"/>
<path d="M3451 823 c-9 -16 -12 -16 -21 -3 -6 10 -10 11 -10 3 0 -7 -7 -13
-15 -13 -10 0 -15 -11 -15 -35 0 -27 3 -33 15 -29 11 4 13 2 9 -9 -3 -8 -1
-18 5 -21 12 -8 52 11 63 29 10 17 58 7 58 -12 0 -12 2 -12 16 1 10 11 14 30
12 58 -3 44 -20 56 -26 18 -5 -29 -49 -28 -54 2 -4 28 -24 34 -37 11z m-1 -78
c0 -8 -4 -15 -10 -15 -5 0 -10 7 -10 15 0 8 5 15 10 15 6 0 10 -7 10 -15z"/>
<path d="M2076 805 c-9 -26 -7 -32 5 -12 6 10 9 21 6 23 -2 3 -7 -2 -11 -11z"/>
<path d="M1998 783 c-28 -51 -23 -86 17 -122 45 -39 78 -47 134 -32 67 18 88
34 89 71 1 28 -1 30 -12 15 -7 -9 -21 -15 -32 -13 -15 3 -18 10 -16 37 3 25 0
31 -9 25 -7 -4 -33 -7 -57 -5 -42 2 -43 1 -40 -26 3 -28 -1 -30 -41 -24 -6 0
-11 25 -13 54 l-3 52 -17 -32z"/>
<path d="M1638 753 c12 -2 30 -2 40 0 9 3 -1 5 -23 4 -22 0 -30 -2 -17 -4z"/>
<path d="M2940 720 c6 -11 15 -20 20 -20 17 0 11 15 -11 28 -19 12 -19 11 -9
-8z"/>
<path d="M1594 719 c-3 -6 0 -15 7 -20 19 -12 29 -11 29 1 0 6 -6 10 -12 10
-9 0 -8 4 2 10 13 8 13 10 -2 10 -9 0 -20 -5 -24 -11z"/>
<path d="M2907 723 c-22 -21 18 -74 56 -72 17 1 15 3 -10 10 -18 5 -33 14 -33
19 0 12 14 13 24 3 3 -4 14 -8 23 -9 8 -2 12 1 7 4 -5 4 -21 17 -35 30 -14 12
-29 19 -32 15z m10 -25 c-3 -8 -6 -5 -6 6 -1 11 2 17 5 13 3 -3 4 -12 1 -19z"/>
<path d="M3043 719 c-32 -12 -29 -16 7 -11 18 3 30 0 30 -7 0 -6 4 -11 10 -11
12 0 2 27 -13 33 -7 2 -22 1 -34 -4z"/>
<path d="M1570 700 c0 -5 -7 -10 -15 -10 -12 0 -12 -3 2 -19 20 -24 40 -16 21
7 -12 15 -11 16 4 4 9 -8 15 -19 12 -27 -3 -7 0 -16 6 -20 21 -13 95 -13 120
0 l25 14 -25 2 c-14 1 -34 1 -45 0 -14 0 -16 1 -5 6 8 3 18 11 22 17 5 8 11 7
20 -2 6 -6 17 -12 22 -12 6 0 1 6 -10 14 -21 15 -40 16 -61 3 -8 -5 -13 -3
-13 3 0 7 -7 9 -16 6 -9 -4 -27 1 -40 9 -13 9 -24 11 -24 5z"/>
<path d="M2990 629 c0 -5 9 -9 20 -9 11 0 20 2 20 4 0 2 -9 6 -20 9 -11 3 -20
1 -20 -4z"/>
</g>
</svg>
